<svg xmlns="http://www.w3.org/2000/svg" viewBox="0 0 24 24" fill="none" aria-hidden="true">
  <path
    fill="#25D366"
    d="M12.04 2C6.58 2 2.13 6.45 2.13 11.91c0 1.75.46 3.45 1.32 4.95L2 22l5.25-1.38c1.45.79 3.08 1.21 4.79 1.21 5.46 0 9.91-4.45 9.91-9.91S17.5 2 12.04 2zm5.84 14.25c-.24.68-1.42 1.25-1.96 1.33-.5.07-1.14.1-1.84-.12-.42-.13-.97-.28-1.66-.55-2.92-1.26-4.82-4.2-4.97-4.39-.14-.19-1.2-1.6-1.2-3.05s.76-2.16 1.03-2.46c.27-.3.58-.37.78-.37h.56c.18 0 .42-.07.66.5.24.58.82 2 .89 2.15.07.14.12.31.02.5-.1.19-.14.31-.29.48-.14.16-.31.37-.44.49-.14.14-.29.29-.12.56.16.28.73 1.2 1.56 1.94 1.08.96 1.98 1.26 2.26 1.4.28.14.44.12.6-.07.16-.19.7-.81.88-1.09.19-.28.37-.23.63-.14.26.09 1.64.77 1.92.91.28.14.47.21.54.33.07.12.07.68-.17 1.36z"
  />
</svg>
